# xmcd CD database file
#
# Track frame offsets:
#	225
#	14138
#	27471
#	46171
#	66578
#	81782
#	95271
#	107984
#	120978
#	133941
#	150891
#	164192
#
# Disc length: 2405 seconds
#
# Revision: 0
# Processed by: cddbd v1.5.2PL0 Copyright (c) Steve Scherf et al.
# Submitted via: CDex 1.70beta2
#
DISCID=a309620c
DTITLE=Malika Ayane - Malika Ayane
DYEAR=2008
DGENRE=Jazz
TTITLE0=Someday
TTITLE1=Sospesa
TTITLE2=Briciole
TTITLE3=Contro Vento
TTITLE4=True Life
TTITLE5=Feeling Better
TTITLE6=Bleu Bird
TTITLE7=Moon
TTITLE8=Il giardino dei Salici
TTITLE9=Perfetta
TTITLE10=Soul Waver
TTITLE11=Fandango
EXTD=YEAR: 2008
EXTT0=
EXTT1=
EXTT2=
EXTT3=
EXTT4=
EXTT5=
EXTT6=
EXTT7=
EXTT8=
EXTT9=
EXTT10=
EXTT11=
PLAYORDER=
